<?xml version="1.0" encoding="UTF-8" standalone="no"?>
<!-- Created with Inkscape (http://www.inkscape.org/) -->

<svg
   width="87.965538"
   height="79.666336"
   viewBox="0 0 23.274215 21.078385"
   version="1.1"
   id="svg5"
   inkscape:version="1.2.2 (732a01da63, 2022-12-09)"
   sodipodi:docname="AngryBirds.svg"
   xmlns:inkscape="http://www.inkscape.org/namespaces/inkscape"
   xmlns:sodipodi="http://sodipodi.sourceforge.net/DTD/sodipodi-0.dtd"
   xmlns="http://www.w3.org/2000/svg"
   xmlns:svg="http://www.w3.org/2000/svg">
  <sodipodi:namedview
     id="namedview7"
     pagecolor="#ffffff"
     bordercolor="#000000"
     borderopacity="0.25"
     inkscape:showpageshadow="2"
     inkscape:pageopacity="0.0"
     inkscape:pagecheckerboard="true"
     inkscape:deskcolor="#d1d1d1"
     inkscape:document-units="px"
     showgrid="false"
     showguides="false"
     inkscape:zoom="5.6568543"
     inkscape:cx="189.41623"
     inkscape:cy="640.90391"
     inkscape:window-width="1920"
     inkscape:window-height="1001"
     inkscape:window-x="-9"
     inkscape:window-y="-9"
     inkscape:window-maximized="1"
     inkscape:current-layer="layer1" />
  <defs
     id="defs2">
    <linearGradient
       id="linearGradient5065"
       inkscape:swatch="solid">
      <stop
         style="stop-color:#000000;stop-opacity:1;"
         offset="0"
         id="stop5063" />
    </linearGradient>
  </defs>
  <g
     inkscape:label="Layer 1"
     inkscape:groupmode="layer"
     id="layer1"
     transform="translate(-59.385285,-174.37996)">
    <g
       id="g140679"
       transform="translate(-3.8364583,-0.85989582)">
      <g
         id="g139955"
         transform="matrix(1.041437,0,0,1.041437,-23.560239,-13.056258)"
         inkscape:export-filename="..\..\th\box.svg"
         inkscape:export-xdpi="643.69727"
         inkscape:export-ydpi="643.69727"
         style="opacity:0.276596;fill:#000000">
        <path
           id="path139933"
           style="opacity:1;fill:#000000;stroke:#a95f5f;stroke-width:0.184679;stroke-opacity:1"
           d="m 94.745562,181.05352 c 11.120098,-0.42043 10.935348,-0.39987 10.699808,10.14525 0.6975,11.13809 -0.95169,9.81527 -11.234101,9.58559 -11.026144,0.40751 -10.884616,0.43723 -10.650863,-10.02765 -0.67891,-11.18038 0.840037,-9.93426 11.185156,-9.70319 z"
           sodipodi:nodetypes="ccccc" />
        <path
           id="path139935"
           style="opacity:1;fill:#000000;fill-opacity:1;stroke:#a95f5f;stroke-width:0.0619125;stroke-dasharray:none;stroke-opacity:1"
           d="m 92.328119,180.93056 v 19.96467 c 0.586518,-0.0211 1.248979,-0.0634 2.004272,-0.11111 0.889103,0.034 1.665253,0.0918 2.345521,0.12971 v -19.97346 c -0.593945,0.0208 -1.265895,0.0636 -2.032986,0.11318 -0.878033,-0.0335 -1.644332,-0.0878 -2.316807,-0.12299 z" />
        <path
           id="path139937"
           style="opacity:1;fill:#000000;fill-opacity:1;stroke:#a95f5f;stroke-width:0.0632354;stroke-dasharray:none;stroke-opacity:1"
           d="m 83.458987,188.74713 c 0.02372,0.6213 0.0575,1.28863 0.101286,2.0097 -0.01898,0.84982 -0.03674,1.6236 -0.04858,2.34042 h 22.033287 c -0.0237,-0.5892 -0.0572,-1.21992 -0.0997,-1.89859 0.0199,-0.89254 0.0393,-1.70367 0.0517,-2.45153 z" />
        <path
           id="path139939"
           style="opacity:1;fill:#000000;stroke:#a95f5f;stroke-width:0.190235;stroke-dasharray:none;stroke-opacity:1"
           d="m 92.503147,191.74678 2.170247,1.69052 -4.132386,5.30504 -0.420848,-1.69768 -1.749399,0.007 z"
           sodipodi:nodetypes="cccccc" />
        <path
           id="path139941"
           style="opacity:1;fill:#000000;stroke:#a95f5f;stroke-width:0.202406;stroke-dasharray:none;stroke-opacity:1"
           d="m 96.296579,191.03042 -2.291861,1.78525 4.363953,5.60232 0.444431,-1.79281 1.847438,0.008 z"
           sodipodi:nodetypes="cccccc" />
        <path
           id="path139943"
           style="opacity:1;fill:#000000;stroke:#a95f5f;stroke-width:0.186267;stroke-dasharray:none"
           d="m 101.94922,184.66599 c -0.73016,-0.39537 -1.86121,-0.34507 -3.402054,0.55976 -2.528565,1.48483 -4.142595,4.21571 -3.770647,5.3858 0.371959,1.17008 2.830929,1.54317 5.359491,0.0583 2.52856,-1.48483 3.07175,-3.52772 2.72428,-4.79917 -0.14034,-0.51353 -0.4432,-0.95096 -0.91107,-1.20472 z m -1.31358,1.75068 c 0.37337,0.19246 0.56044,0.56125 0.58865,0.96705 0.0529,0.76118 -0.42854,1.83936 -1.876591,2.34215 -1.448075,0.5028 -2.676924,-0.0305 -2.752482,-0.73787 -0.07557,-0.70735 1.025153,-2.03166 2.47322,-2.53445 0.70141,-0.24355 1.216583,-0.21791 1.567203,-0.0369 z" />
        <path
           id="path139945"
           style="opacity:1;fill:#000000;stroke:#a95f5f;stroke-width:0.194733;stroke-dasharray:none"
           d="m 89.948099,185.16171 c 1.042424,-0.005 2.267178,0.40555 3.443535,1.49266 1.930435,1.78398 2.113356,4.04811 1.012276,4.66204 -1.101079,0.61391 -4.047689,0.0258 -5.978122,-1.75812 -1.930435,-1.78398 -1.330631,-3.25525 -0.197051,-3.94136 0.45784,-0.2771 1.051151,-0.45176 1.719362,-0.45522 z m 0.42654,1.54486 c -0.527338,-0.003 -0.951832,0.16654 -1.22193,0.41321 -0.506646,0.46268 -0.607175,1.30442 0.702873,2.10672 1.310057,0.8023 2.986726,0.87725 3.486786,0.45611 0.500068,-0.42113 0.05868,-1.6256 -1.25137,-2.4279 -0.634556,-0.38862 -1.220983,-0.54498 -1.716359,-0.54814 z" />
        <path
           id="path139947"
           style="opacity:1;fill:#000000;stroke:#a95f5f;stroke-width:0.183885"
           d="m 97.422667,190.91019 c 10e-7,1.29879 -1.2849,2.35167 -2.869902,2.35167 -0.07731,0 -0.153914,-0.003 -0.229686,-0.007 -1.47761,-0.0959 -2.640215,-1.10881 -2.640216,-2.34425 -10e-7,-1.29879 1.227733,-2.628 2.834823,-2.25813 0.165761,0.0382 0.353237,0.083 0.487479,0.005 0.831396,-0.48321 2.417502,1.06699 2.417502,2.2536 z"
           sodipodi:nodetypes="ssssssss" />
        <path
           style="opacity:1;fill:#000000;fill-opacity:1;stroke:#a95f5f;stroke-width:0.202406;stroke-dasharray:none;stroke-dashoffset:0;stroke-opacity:1"
           d="m 95.00112,188.68034 c -0.04707,-0.19156 -2.939312,0.95177 -0.857462,3.80166"
           id="path139949"
           sodipodi:nodetypes="cc" />
        <path
           style="opacity:1;fill:#000000;fill-opacity:1;stroke:none;stroke-width:0.202406;stroke-dasharray:none;stroke-dashoffset:0;stroke-opacity:1"
           d="m 94.06144,192.5417 c 0.0021,0.009 0.20268,0.0779 0.162266,-0.12554"
           id="path139951"
           sodipodi:nodetypes="cc" />
        <path
           id="path139953"
           style="opacity:0.111702;fill:#000000;fill-opacity:1;stroke:none;stroke-width:0.202406;stroke-dasharray:none;stroke-dashoffset:0;stroke-opacity:1"
           d="m 99.455427,180.92746 c -0.814224,-0.002 -1.735497,0.0209 -2.777609,0.0558 v -0.0429 c -0.585851,0.0205 -1.24941,0.0624 -2.003495,0.11111 -0.03437,-7.9e-4 -0.06748,-0.002 -0.100769,-0.003 v 7.6321 c 0.903582,1.47563 0.860086,3.0223 0,4.6302 v 7.4843 c 0.786884,0.0344 1.487802,0.084 2.104264,0.11834 v -0.0543 c 7.524242,0.27041 9.197952,0.47806 8.867162,-7.76232 -0.003,-0.0668 -0.007,-0.1393 -0.01,-0.20722 -0.01,-0.23161 -0.0202,-0.46367 -0.0331,-0.70848 -0.0167,-0.31617 -0.0356,-0.64355 -0.0568,-0.98289 0.011,-0.4943 0.0214,-0.95867 0.031,-1.40611 0.007,-0.31558 0.0135,-0.63506 0.0186,-0.92915 6.7e-4,-0.0386 10e-4,-0.0781 0.002,-0.11627 0.10929,-6.59943 -0.34193,-7.80791 -6.041493,-7.81967 z"
           sodipodi:nodetypes="scccccccccssscsscs" />
      </g>
      <path
         id="rect105687"
         style="fill:#ff8080;stroke:#a95f5f;stroke-width:0.184679;stroke-opacity:1"
         d="m 75.101252,175.90858 c 11.120098,-0.42043 10.935348,-0.39987 10.699808,10.14525 0.6975,11.13809 -0.95169,9.81527 -11.234101,9.58559 -11.026144,0.40751 -10.884616,0.43723 -10.650863,-10.02765 -0.67891,-11.18038 0.840037,-9.93426 11.185156,-9.70319 z"
         sodipodi:nodetypes="ccccc" />
      <path
         id="rect106424"
         style="fill:#ffb0b0;fill-opacity:1;stroke:#a95f5f;stroke-width:0.0619125;stroke-dasharray:none;stroke-opacity:1"
         d="m 72.683809,175.78562 v 19.96467 c 0.586518,-0.0211 1.248979,-0.0634 2.004272,-0.11111 0.889103,0.034 1.665253,0.0918 2.345521,0.12971 v -19.97346 c -0.593945,0.0208 -1.265895,0.0636 -2.032986,0.11318 -0.878033,-0.0335 -1.644332,-0.0878 -2.316807,-0.12299 z" />
      <path
         id="path106429"
         style="fill:#ffb0b0;fill-opacity:1;stroke:#a95f5f;stroke-width:0.0632354;stroke-dasharray:none;stroke-opacity:1"
         d="m 63.814677,183.60219 c 0.02372,0.6213 0.0575,1.28863 0.101286,2.0097 -0.01898,0.84982 -0.03674,1.6236 -0.04858,2.34042 H 85.90067 c -0.0237,-0.5892 -0.0572,-1.21992 -0.0997,-1.89859 0.0199,-0.89254 0.0393,-1.70367 0.0517,-2.45153 z" />
      <path
         id="rect114004"
         style="fill:#ffb0b0;stroke:#a95f5f;stroke-width:0.190235;stroke-dasharray:none;stroke-opacity:1"
         d="m 72.858837,186.60184 2.170247,1.69052 -4.132386,5.30504 -0.420848,-1.69768 -1.749399,0.007 z"
         sodipodi:nodetypes="cccccc" />
      <path
         id="path117658"
         style="fill:#ffb0b0;stroke:#a95f5f;stroke-width:0.202406;stroke-dasharray:none;stroke-opacity:1"
         d="m 76.652269,185.88548 -2.291861,1.78525 4.363953,5.60232 0.444431,-1.79281 1.847438,0.008 z"
         sodipodi:nodetypes="cccccc" />
      <path
         id="path123552"
         style="fill:#ffb0b0;stroke:#a95f5f;stroke-width:0.186267;stroke-dasharray:none"
         d="m 82.30491,179.52105 c -0.73016,-0.39537 -1.86121,-0.34507 -3.402054,0.55976 -2.528565,1.48483 -4.142595,4.21571 -3.770647,5.3858 0.371959,1.17008 2.830929,1.54317 5.359491,0.0583 2.52856,-1.48483 3.07175,-3.52772 2.72428,-4.79917 -0.14034,-0.51353 -0.4432,-0.95096 -0.91107,-1.20472 z m -1.31358,1.75068 c 0.37337,0.19246 0.56044,0.56125 0.58865,0.96705 0.0529,0.76118 -0.42854,1.83936 -1.876591,2.34215 -1.448075,0.5028 -2.676924,-0.0305 -2.752482,-0.73787 -0.07557,-0.70735 1.025153,-2.03166 2.47322,-2.53445 0.70141,-0.24355 1.216583,-0.21791 1.567203,-0.0369 z" />
      <path
         id="path127208"
         style="fill:#ffb0b0;stroke:#a95f5f;stroke-width:0.194733;stroke-dasharray:none"
         d="m 70.303789,180.01677 c 1.042424,-0.005 2.267178,0.40555 3.443535,1.49266 1.930435,1.78398 2.113356,4.04811 1.012276,4.66204 -1.101079,0.61391 -4.047689,0.0258 -5.978122,-1.75812 -1.930435,-1.78398 -1.330631,-3.25525 -0.197051,-3.94136 0.45784,-0.2771 1.051151,-0.45176 1.719362,-0.45522 z m 0.42654,1.54486 c -0.527338,-0.003 -0.951832,0.16654 -1.22193,0.41321 -0.506646,0.46268 -0.607175,1.30442 0.702873,2.10672 1.310057,0.8023 2.986726,0.87725 3.486786,0.45611 0.500068,-0.42113 0.05868,-1.6256 -1.25137,-2.4279 -0.634556,-0.38862 -1.220983,-0.54498 -1.716359,-0.54814 z" />
      <path
         id="path110924"
         style="fill:#ffb0b0;stroke:#a95f5f;stroke-width:0.183885"
         d="m 77.778357,185.76525 c 10e-7,1.29879 -1.2849,2.35167 -2.869902,2.35167 -0.07731,0 -0.153914,-0.003 -0.229686,-0.007 -1.47761,-0.0959 -2.640215,-1.10881 -2.640216,-2.34425 -10e-7,-1.29879 1.227733,-2.628 2.834823,-2.25813 0.165761,0.0382 0.353237,0.083 0.487479,0.005 0.831396,-0.48321 2.417502,1.06699 2.417502,2.2536 z"
         sodipodi:nodetypes="ssssssss" />
      <path
         style="fill:none;fill-opacity:1;stroke:#a95f5f;stroke-width:0.202406;stroke-dasharray:none;stroke-dashoffset:0;stroke-opacity:1"
         d="m 75.35681,183.5354 c -0.04707,-0.19156 -2.939312,0.95177 -0.857462,3.80166"
         id="path133837"
         sodipodi:nodetypes="cc" />
      <path
         style="fill:#a95f5f;fill-opacity:1;stroke:none;stroke-width:0.202406;stroke-dasharray:none;stroke-dashoffset:0;stroke-opacity:1"
         d="m 74.41713,187.39676 c 0.0021,0.009 0.20268,0.0779 0.162266,-0.12554"
         id="path139455"
         sodipodi:nodetypes="cc" />
      <text
         xml:space="preserve"
         style="font-style:normal;font-variant:normal;font-weight:bold;font-stretch:normal;font-size:1.81556px;font-family:'Berlin Sans FB';-inkscape-font-specification:'Berlin Sans FB Bold';text-align:start;writing-mode:lr-tb;direction:ltr;text-anchor:start;opacity:1;fill:#ff8080;fill-opacity:1;stroke:none;stroke-width:0.26042;stroke-dasharray:none;stroke-dashoffset:0;stroke-opacity:1"
         x="-52.368732"
         y="204.96059"
         id="text140445"
         transform="matrix(0.81740833,-0.62107763,0.5893171,0.77560787,0,0)"><tspan
           sodipodi:role="line"
           id="tspan140443"
           style="fill:#ff8080;fill-opacity:1;stroke-width:0.26042"
           x="-52.368732"
           y="204.96059">th</tspan></text>
      <path
         id="rect139510"
         style="opacity:0.111702;fill:#a95f5f;fill-opacity:1;stroke:none;stroke-width:0.202406;stroke-dasharray:none;stroke-dashoffset:0;stroke-opacity:1"
         d="m 79.811117,175.78252 c -0.814224,-0.002 -1.735497,0.0209 -2.777609,0.0558 v -0.0429 c -0.585851,0.0205 -1.24941,0.0624 -2.003495,0.11111 -0.03437,-7.9e-4 -0.06748,-0.002 -0.100769,-0.003 v 7.6321 c 0.903582,1.47563 0.860086,3.0223 0,4.6302 v 7.4843 c 0.786884,0.0344 1.487802,0.084 2.104264,0.11834 v -0.0543 c 7.524242,0.27041 9.197952,0.47806 8.867162,-7.76232 -0.003,-0.0668 -0.007,-0.1393 -0.01,-0.20722 -0.01,-0.23161 -0.0202,-0.46367 -0.0331,-0.70848 -0.0167,-0.31617 -0.0356,-0.64355 -0.0568,-0.98289 0.011,-0.4943 0.0214,-0.95867 0.031,-1.40611 0.007,-0.31558 0.0135,-0.63506 0.0186,-0.92915 6.7e-4,-0.0386 0.001,-0.0781 0.002,-0.11627 0.10929,-6.59943 -0.34193,-7.80791 -6.041493,-7.81967 z"
         sodipodi:nodetypes="scccccccccssscsscs" />
    </g>
  </g>
</svg>
