<?xml version="1.0" encoding="UTF-8" standalone="no"?>
<!-- Created with Inkscape (http://www.inkscape.org/) -->

<svg
   width="87.231651"
   height="78.939507"
   viewBox="0 0 23.080041 20.886078"
   version="1.1"
   id="svg5"
   xmlns="http://www.w3.org/2000/svg"
   xmlns:svg="http://www.w3.org/2000/svg">
  <defs
     id="defs2">
    <linearGradient
       id="linearGradient5065">
      <stop
         style="stop-color:#000000;stop-opacity:1;"
         offset="0"
         id="stop5063" />
    </linearGradient>
  </defs>
  <g
     id="layer1"
     transform="translate(-59.085351,-174.11206)">
    <g
       id="g142638"
       transform="translate(-0.39687499,-0.36380208)">
      <path
         id="path139933"
         style="opacity:0.25;fill:#000000;stroke:none;stroke-width:0.192332;stroke-opacity:1"
         d="m 65.451818,174.47669 c -5.076575,-0.0239 -6.206028,0.9841 -5.931421,8.17521 0.01107,0.28985 0.02484,0.59198 0.04031,0.90227 0.002,0.0403 0.0031,0.0777 0.0052,0.11834 0.0045,0.0889 0.01062,0.18485 0.0155,0.27543 0.01393,0.26106 0.0277,0.52162 0.04444,0.79737 -0.012,0.53717 -0.02259,1.03653 -0.03256,1.5198 -0.0061,0.29319 -0.0119,0.59008 -0.01654,0.86507 -2.81e-4,0.0168 -7.57e-4,0.0355 -10e-4,0.0522 -0.130242,7.88846 0.502729,8.36588 9.181351,8.07599 v 0.045 c 0.600447,-0.0216 1.28,-0.0645 2.050005,-0.11317 0.07038,0.002 0.137109,0.004 0.206705,0.006 0.0296,0.001 0.05798,0.003 0.08733,0.004 0.619027,0.0271 1.170309,0.0611 1.687753,0.0925 0.164698,0.0101 0.343719,0.0219 0.498677,0.0305 v -0.0563 c 0.422444,0.0152 0.845991,0.0305 1.233517,0.0439 0.127427,0.004 0.256592,0.008 0.380338,0.0124 0.107504,0.004 0.215124,0.007 0.319877,0.01 0.08173,0.002 0.162287,0.005 0.242363,0.007 0.163963,0.004 0.327109,0.009 0.484208,0.0119 0.398206,0.008 0.775205,0.0116 1.13068,0.009 0.162358,-0.001 0.318063,-0.005 0.471806,-0.009 0.01535,-4.2e-4 0.03125,-5.8e-4 0.04651,-0.001 0.0047,-1.5e-4 0.0092,-3.7e-4 0.01395,-5.2e-4 3.806117,-0.11637 4.973873,-1.2314 4.951119,-6.47609 -5.71e-4,-0.14593 -0.0033,-0.29926 -0.0057,-0.45165 -0.0021,-0.13112 -0.0038,-0.26088 -0.0072,-0.39688 -0.0034,-0.13616 -0.0083,-0.27899 -0.01292,-0.42013 -0.01441,-0.43679 -0.03324,-0.88998 -0.05891,-1.37614 -0.01741,-0.3297 -0.03678,-0.67032 -0.05891,-1.02371 0.0074,-0.32915 0.01321,-0.61733 0.02015,-0.92708 0.003,-0.13571 0.0064,-0.27411 0.0093,-0.40617 8.08e-4,-0.0371 0.0013,-0.0697 0.0021,-0.10646 0.0073,-0.33733 0.01419,-0.67887 0.01964,-0.9927 9.2e-5,-0.005 4.25e-4,-0.0112 5.16e-4,-0.0165 5.79e-4,-0.0336 0.0015,-0.0711 0.0021,-0.10438 h -5.16e-4 c 0.0034,-0.20251 0.0061,-0.39935 0.0083,-0.59221 1.39e-4,-0.0121 3.82e-4,-0.0241 5.17e-4,-0.0362 1.51e-4,-0.0136 3.71e-4,-0.0262 5.16e-4,-0.0398 0.002,-0.18452 0.0035,-0.36782 0.0041,-0.54363 1.5e-5,-0.004 -1.5e-5,-0.008 0,-0.0124 1.08e-4,-0.0308 -6.4e-5,-0.0594 0,-0.0899 6.06e-4,-0.28395 -0.0014,-0.55595 -0.0052,-0.81753 -0.0012,-0.0858 -0.0023,-0.17232 -0.0041,-0.25579 -0.0022,-0.10151 -0.0052,-0.20112 -0.0083,-0.29921 -0.0033,-0.10778 -0.0074,-0.21305 -0.01189,-0.31678 -0.0043,-0.10032 -0.008,-0.20261 -0.01344,-0.2992 -0.185262,-3.3086 -1.047953,-4.44945 -4.069002,-4.7501 -0.349799,-0.0348 -0.729464,-0.0585 -1.139465,-0.0729 -0.0012,-5e-5 -0.0025,4e-5 -0.0036,0 -0.171666,-0.006 -0.349487,-0.0105 -0.532267,-0.0134 -0.102408,-0.002 -0.21028,-0.002 -0.31626,-0.003 -0.06768,-4.9e-4 -0.132378,-0.001 -0.201538,-0.002 -0.04033,-1e-4 -0.08422,5e-4 -0.125057,5.2e-4 -0.120403,1.1e-4 -0.243596,0.001 -0.368453,0.002 -0.123639,0.001 -0.250189,0.002 -0.378271,0.004 -0.136441,0.002 -0.274939,0.004 -0.416512,0.007 -0.08727,0.002 -0.177923,0.004 -0.267167,0.006 -0.174484,0.004 -0.349067,0.008 -0.531234,0.0129 -0.0651,0.002 -0.134407,0.004 -0.200505,0.006 -0.199141,0.006 -0.396821,0.0121 -0.605131,0.0191 v -0.045 h -5.17e-4 c -0.152531,0.005 -0.309983,0.0123 -0.472839,0.0202 -0.0021,1e-4 -0.0041,4.1e-4 -0.0062,5.2e-4 -0.486951,0.0237 -1.020556,0.0572 -1.607137,0.0951 -0.03579,-8.3e-4 -0.07024,-0.002 -0.104903,-0.003 v 5.2e-4 c -0.02453,-5.8e-4 -0.04792,-9.6e-4 -0.07235,-0.002 -0.85202,-0.0351 -1.604744,-0.0868 -2.266529,-0.12144 v 0.0532 c -1.243509,-0.0428 -2.354954,-0.0839 -3.305224,-0.0884 z" />
      <path
         id="rect105687"
         style="fill:#ff8080;stroke:#a95f5f;stroke-width:0.184679;stroke-opacity:1"
         d="m 71.264794,175.04868 c 11.120098,-0.42043 10.935348,-0.39987 10.699808,10.14525 0.6975,11.13809 -0.95169,9.81527 -11.234101,9.58559 -11.026144,0.40751 -10.884616,0.43723 -10.650863,-10.02765 -0.67891,-11.18038 0.840037,-9.93426 11.185156,-9.70319 z" />
      <path
         id="rect106424"
         style="fill:#ffb0b0;fill-opacity:1;stroke:#a95f5f;stroke-width:0.0619125;stroke-dasharray:none;stroke-opacity:1"
         d="m 68.847351,174.92572 v 19.96467 c 0.586518,-0.0211 1.248979,-0.0634 2.004272,-0.11111 0.889103,0.034 1.665253,0.0918 2.345521,0.12971 v -19.97346 c -0.593945,0.0208 -1.265895,0.0636 -2.032986,0.11318 -0.878033,-0.0335 -1.644332,-0.0878 -2.316807,-0.12299 z" />
      <path
         id="path106429"
         style="fill:#ffb0b0;fill-opacity:1;stroke:#a95f5f;stroke-width:0.0632354;stroke-dasharray:none;stroke-opacity:1"
         d="m 59.978219,182.74229 c 0.02372,0.6213 0.0575,1.28863 0.101286,2.0097 -0.01898,0.84982 -0.03674,1.6236 -0.04858,2.34042 h 22.033287 c -0.0237,-0.5892 -0.0572,-1.21992 -0.0997,-1.89859 0.0199,-0.89254 0.0393,-1.70367 0.0517,-2.45153 z" />
      <path
         id="rect114004"
         style="fill:#ffb0b0;stroke:#a95f5f;stroke-width:0.190235;stroke-dasharray:none;stroke-opacity:1"
         d="m 69.022379,185.74194 2.170247,1.69052 -4.132386,5.30504 -0.420848,-1.69768 -1.749399,0.007 z" />
      <path
         id="path117658"
         style="fill:#ffb0b0;stroke:#a95f5f;stroke-width:0.202406;stroke-dasharray:none;stroke-opacity:1"
         d="m 72.815811,185.02558 -2.291861,1.78525 4.363953,5.60232 0.444431,-1.79281 1.847438,0.008 z" />
      <path
         id="path123552"
         style="fill:#ffb0b0;stroke:#a95f5f;stroke-width:0.186267;stroke-dasharray:none"
         d="m 78.468452,178.66115 c -0.73016,-0.39537 -1.86121,-0.34507 -3.402054,0.55976 -2.528565,1.48483 -4.142595,4.21571 -3.770647,5.3858 0.371959,1.17008 2.830929,1.54317 5.359491,0.0583 2.52856,-1.48483 3.07175,-3.52772 2.72428,-4.79917 -0.14034,-0.51353 -0.4432,-0.95096 -0.91107,-1.20472 z m -1.31358,1.75068 c 0.37337,0.19246 0.56044,0.56125 0.58865,0.96705 0.0529,0.76118 -0.42854,1.83936 -1.876591,2.34215 -1.448075,0.5028 -2.676924,-0.0305 -2.752482,-0.73787 -0.07557,-0.70735 1.025153,-2.03166 2.47322,-2.53445 0.70141,-0.24355 1.216583,-0.21791 1.567203,-0.0369 z" />
      <path
         id="path127208"
         style="fill:#ffb0b0;stroke:#a95f5f;stroke-width:0.194733;stroke-dasharray:none"
         d="m 66.467331,179.15687 c 1.042424,-0.005 2.267178,0.40555 3.443535,1.49266 1.930435,1.78398 2.113356,4.04811 1.012276,4.66204 -1.101079,0.61391 -4.047689,0.0258 -5.978122,-1.75812 -1.930435,-1.78398 -1.330631,-3.25525 -0.197051,-3.94136 0.45784,-0.2771 1.051151,-0.45176 1.719362,-0.45522 z m 0.42654,1.54486 c -0.527338,-0.003 -0.951832,0.16654 -1.22193,0.41321 -0.506646,0.46268 -0.607175,1.30442 0.702873,2.10672 1.310057,0.8023 2.986726,0.87725 3.486786,0.45611 0.500068,-0.42113 0.05868,-1.6256 -1.25137,-2.4279 -0.634556,-0.38862 -1.220983,-0.54498 -1.716359,-0.54814 z" />
      <path
         id="path110924"
         style="fill:#ffb0b0;stroke:#a95f5f;stroke-width:0.183885"
         d="m 73.941899,184.90535 c 10e-7,1.29879 -1.2849,2.35167 -2.869902,2.35167 -0.07731,0 -0.153914,-0.003 -0.229686,-0.007 -1.47761,-0.0959 -2.640215,-1.10881 -2.640216,-2.34425 -10e-7,-1.29879 1.227733,-2.628 2.834823,-2.25813 0.165761,0.0382 0.353237,0.083 0.487479,0.005 0.831396,-0.48321 2.417502,1.06699 2.417502,2.2536 z" />
      <path
         style="fill:none;fill-opacity:1;stroke:#a95f5f;stroke-width:0.202406;stroke-dasharray:none;stroke-dashoffset:0;stroke-opacity:1"
         d="m 71.520352,182.6755 c -0.04707,-0.19156 -2.939312,0.95177 -0.857462,3.80166"
         id="path133837" />
      <path
         style="fill:#a95f5f;fill-opacity:1;stroke:none;stroke-width:0.202406;stroke-dasharray:none;stroke-dashoffset:0;stroke-opacity:1"
         d="m 70.580672,186.53686 c 0.0021,0.009 0.20268,0.0779 0.162266,-0.12554"
         id="path139455" />
      <text
         xml:space="preserve"
         style="font-style:normal;font-variant:normal;font-weight:bold;font-stretch:normal;font-size:1.81556px;font-family:'Berlin Sans FB';-inkscape-font-specification:'Berlin Sans FB Bold';text-align:start;writing-mode:lr-tb;direction:ltr;text-anchor:start;fill:#ff8080;fill-opacity:1;stroke:none;stroke-width:0.26042;stroke-dasharray:none;stroke-dashoffset:0;stroke-opacity:1"
         x="-54.83757"
         y="201.87497"
         id="text140445"
         transform="matrix(0.81740833,-0.62107763,0.5893171,0.77560787,0,0)"><tspan
           id="tspan140443"
           style="fill:#ff8080;fill-opacity:1;stroke-width:0.26042"
           x="-54.83757"
           y="201.87497">th</tspan></text>
      <path
         id="rect139510"
         style="opacity:0.111702;fill:#a95f5f;fill-opacity:1;stroke:none;stroke-width:0.202406;stroke-dasharray:none;stroke-dashoffset:0;stroke-opacity:1"
         d="m 75.974659,174.92262 c -0.814224,-0.002 -1.735497,0.0209 -2.777609,0.0558 v -0.0429 c -0.585851,0.0205 -1.24941,0.0624 -2.003495,0.11111 -0.03437,-7.9e-4 -0.06748,-0.002 -0.100769,-0.003 v 7.6321 c 0.903582,1.47563 0.860086,3.0223 0,4.6302 v 7.4843 c 0.786884,0.0344 1.487802,0.084 2.104264,0.11834 v -0.0543 c 7.524242,0.27041 9.197952,0.47806 8.867162,-7.76232 -0.003,-0.0668 -0.007,-0.1393 -0.01,-0.20722 -0.01,-0.23161 -0.0202,-0.46367 -0.0331,-0.70848 -0.0167,-0.31617 -0.0356,-0.64355 -0.0568,-0.98289 0.011,-0.4943 0.0214,-0.95867 0.031,-1.40611 0.007,-0.31558 0.0135,-0.63506 0.0186,-0.92915 6.7e-4,-0.0386 10e-4,-0.0781 0.002,-0.11627 0.10929,-6.59943 -0.34193,-7.80791 -6.041493,-7.81967 z" />
    </g>
  </g>
</svg>
