<?xml version="1.0" encoding="UTF-8" standalone="no"?>
<!-- Created with Inkscape (http://www.inkscape.org/) -->

<svg
   width="58.014851"
   height="151.41899"
   viewBox="0 0 15.349762 40.062941"
   version="1.1"
   id="svg5"
   inkscape:version="1.2.2 (732a01da63, 2022-12-09)"
   sodipodi:docname="AngryBirds.svg"
   xmlns:inkscape="http://www.inkscape.org/namespaces/inkscape"
   xmlns:sodipodi="http://sodipodi.sourceforge.net/DTD/sodipodi-0.dtd"
   xmlns="http://www.w3.org/2000/svg"
   xmlns:svg="http://www.w3.org/2000/svg">
  <sodipodi:namedview
     id="namedview7"
     pagecolor="#ffffff"
     bordercolor="#000000"
     borderopacity="0.25"
     inkscape:showpageshadow="2"
     inkscape:pageopacity="0.0"
     inkscape:pagecheckerboard="true"
     inkscape:deskcolor="#d1d1d1"
     inkscape:document-units="px"
     showgrid="false"
     showguides="false"
     inkscape:zoom="5.6568543"
     inkscape:cx="189.41623"
     inkscape:cy="640.90391"
     inkscape:window-width="1920"
     inkscape:window-height="1001"
     inkscape:window-x="-9"
     inkscape:window-y="-9"
     inkscape:window-maximized="1"
     inkscape:current-layer="layer1" />
  <defs
     id="defs2">
    <linearGradient
       id="linearGradient5065"
       inkscape:swatch="solid">
      <stop
         style="stop-color:#000000;stop-opacity:1;"
         offset="0"
         id="stop5063" />
    </linearGradient>
  </defs>
  <g
     inkscape:label="Layer 1"
     inkscape:groupmode="layer"
     id="layer1"
     transform="translate(-35.105519,-155.70489)">
    <g
       id="g105196"
       transform="translate(-6.2177082,0.13229166)">
      <rect
         style="fill:#85aa74;fill-opacity:1;stroke:none;stroke-width:0.0797193"
         id="rect493"
         width="0.94784743"
         height="17.976532"
         x="48.52673"
         y="164.84019" />
      <path
         id="path42733"
         style="fill:#fc86ab;fill-opacity:1;stroke:#d04a6a;stroke-width:0.116369;stroke-opacity:1"
         inkscape:transform-center-x="0.0060535345"
         inkscape:transform-center-y="-0.013320778"
         d="m 50.513853,155.64306 a 1.5914764,3.846068 11.25 0 0 -1.515078,1.20396 3.846068,1.5914764 78.75 0 0 -1.515063,-1.20393 3.846068,1.5914764 78.75 0 0 -0.937717,1.6813 3.846068,1.5914764 56.25 0 0 -1.850516,-0.52405 3.846068,1.5914764 56.25 0 0 -0.220853,1.9182 3.846068,1.5914764 33.75 0 0 -1.92372,0.22011 3.846068,1.5914764 33.75 0 0 0.529649,1.85621 3.846068,1.5914764 11.25 0 0 -1.68126,0.93748 3.846068,1.5914764 11.25 0 0 1.195841,1.51083 1.5914764,3.846068 78.75 0 0 -1.201494,1.51344 1.5914764,3.846068 78.75 0 0 1.690521,0.93902 1.5914764,3.846068 56.25 0 0 -0.5282,1.85548 1.5914764,3.846068 56.25 0 0 1.909896,0.22553 1.5914764,3.846068 33.75 0 0 0.222731,1.91318 1.5914764,3.846068 33.75 0 0 1.861068,-0.53026 1.5914764,3.846068 11.25 0 0 0.937796,1.68764 1.5914764,3.846068 11.25 0 0 1.507895,-1.19168 3.846068,1.5914764 78.75 0 0 1.511098,1.19207 3.846068,1.5914764 78.75 0 0 0.938016,-1.68809 3.846068,1.5914764 56.25 0 0 1.861872,0.53053 3.846068,1.5914764 56.25 0 0 0.222784,-1.91202 3.846068,1.5914764 33.75 0 0 1.910134,-0.22597 3.846068,1.5914764 33.75 0 0 -0.528737,-1.8555 3.846068,1.5914764 11.25 0 0 1.691495,-0.93861 3.846068,1.5914764 11.25 0 0 -1.195843,-1.51347 1.5914764,3.846068 78.75 0 0 1.190856,-1.51028 1.5914764,3.846068 78.75 0 0 -1.678661,-0.93772 1.5914764,3.846068 56.25 0 0 0.526982,-1.85731 l 6.08e-4,-4.1e-4 a 1.5914764,3.846068 56.25 0 0 -1.920432,-0.22024 1.5914764,3.846068 33.75 0 0 -0.223953,-1.91764 l 1.02e-4,-5.1e-4 a 1.5914764,3.846068 33.75 0 0 -1.848103,0.52336 1.5914764,3.846068 11.25 0 0 -0.939714,-1.68065 z m -1.513722,7.54111 a 1.5914764,3.846068 11.25 0 0 0.01299,0.004 1.5914764,3.846068 11.25 0 0 0.0066,10e-4 1.5914764,3.846068 33.75 0 0 0.0086,0.007 1.5914764,3.846068 33.75 0 0 0.02023,0.0122 1.5914764,3.846068 56.25 0 0 0.0012,0.002 1.5914764,3.846068 78.75 0 0 0.0031,0.0244 1.5914764,3.846068 78.75 0 0 0.0058,0.0211 3.846068,1.5914764 11.25 0 0 -1.95e-4,9.8e-4 3.846068,1.5914764 11.25 0 0 -5.86e-4,0.003 3.846068,1.5914764 33.75 0 0 -0.01478,0.0187 3.846068,1.5914764 33.75 0 0 -0.0077,0.0148 3.846068,1.5914764 56.25 0 0 -0.0024,0.002 3.846068,1.5914764 56.25 0 0 -0.0086,0.006 3.846068,1.5914764 78.75 0 0 -0.0184,0.002 3.846068,1.5914764 78.75 0 0 -0.0078,0.003 1.5914764,3.846068 11.25 0 0 -0.0095,-0.002 1.5914764,3.846068 11.25 0 0 -0.01692,-0.002 1.5914764,3.846068 33.75 0 0 -0.0092,-0.007 1.5914764,3.846068 56.25 0 0 -5.07e-4,-1.1e-4 1.5914764,3.846068 56.25 0 0 -0.0099,-0.0162 1.5914764,3.846068 56.25 0 0 -0.01288,-0.0173 1.5914764,3.846068 78.75 0 0 -3.96e-4,-0.003 3.846068,1.5914764 11.25 0 0 0.0058,-0.0241 3.846068,1.5914764 11.25 0 0 0.0026,-0.0211 3.846068,1.5914764 11.25 0 0 1.01e-4,-5.1e-4 3.846068,1.5914764 33.75 0 0 6.09e-4,-4.1e-4 3.846068,1.5914764 33.75 0 0 9.9e-5,-5e-4 3.846068,1.5914764 33.75 0 0 1.02e-4,-5.1e-4 3.846068,1.5914764 33.75 0 0 6.08e-4,-4.1e-4 3.846068,1.5914764 33.75 0 0 1e-4,-5e-4 3.846068,1.5914764 33.75 0 0 6.08e-4,-4.1e-4 3.846068,1.5914764 33.75 0 0 1.02e-4,-5.1e-4 3.846068,1.5914764 33.75 0 0 6.05e-4,-4e-4 3.846068,1.5914764 33.75 0 0 1.02e-4,-5.1e-4 3.846068,1.5914764 33.75 0 0 1.01e-4,-5.1e-4 3.846068,1.5914764 33.75 0 0 1e-4,-5e-4 3.846068,1.5914764 56.25 0 0 5.07e-4,1e-4 3.846068,1.5914764 33.75 0 0 1.01e-4,-5.1e-4 3.846068,1.5914764 56.25 0 0 0.01833,-0.01 3.846068,1.5914764 56.25 0 0 5.07e-4,1e-4 3.846068,1.5914764 56.25 0 0 9.9e-5,-5e-4 3.846068,1.5914764 56.25 0 0 6.08e-4,-4.1e-4 3.846068,1.5914764 56.25 0 0 5.07e-4,1e-4 3.846068,1.5914764 56.25 0 0 1.01e-4,-5.1e-4 3.846068,1.5914764 56.25 0 0 5.07e-4,10e-5 3.846068,1.5914764 56.25 0 0 6.07e-4,-3.9e-4 3.846068,1.5914764 56.25 0 0 1.01e-4,-5.1e-4 3.846068,1.5914764 56.25 0 0 5.07e-4,1e-4 3.846068,1.5914764 56.25 0 0 1.01e-4,-5.1e-4 3.846068,1.5914764 56.25 0 0 5.07e-4,1e-4 3.846068,1.5914764 56.25 0 0 6.07e-4,-4e-4 3.846068,1.5914764 56.25 0 0 1.01e-4,-5.1e-4 3.846068,1.5914764 56.25 0 0 5.07e-4,1e-4 3.846068,1.5914764 56.25 0 0 1.02e-4,-5.1e-4 3.846068,1.5914764 56.25 0 0 5.06e-4,1e-4 3.846068,1.5914764 56.25 0 0 6.06e-4,-4e-4 3.846068,1.5914764 56.25 0 0 1.02e-4,-5.1e-4 3.846068,1.5914764 56.25 0 0 5.07e-4,1e-4 3.846068,1.5914764 56.25 0 0 1.01e-4,-5.1e-4 3.846068,1.5914764 56.25 0 0 6.07e-4,-4e-4 3.846068,1.5914764 56.25 0 0 5.07e-4,1e-4 3.846068,1.5914764 56.25 0 0 1.01e-4,-5.1e-4 3.846068,1.5914764 56.25 0 0 5.06e-4,1e-4 3.846068,1.5914764 56.25 0 0 1.02e-4,-5.1e-4 3.846068,1.5914764 56.25 0 0 6.06e-4,-4e-4 3.846068,1.5914764 56.25 0 0 5.07e-4,1e-4 3.846068,1.5914764 56.25 0 0 1.02e-4,-5.1e-4 3.846068,1.5914764 56.25 0 0 5.07e-4,1.1e-4 3.846068,1.5914764 56.25 0 0 1.01e-4,-5.1e-4 3.846068,1.5914764 56.25 0 0 6.06e-4,-4e-4 3.846068,1.5914764 56.25 0 0 5.07e-4,1e-4 3.846068,1.5914764 56.25 0 0 1.01e-4,-5.1e-4 3.846068,1.5914764 56.25 0 0 6.09e-4,-4.1e-4 3.846068,1.5914764 78.75 0 0 0.0026,0 3.846068,1.5914764 78.75 0 0 0.01536,-0.003 z" />
      <path
         id="path42804"
         style="fill:#fc86ab;fill-opacity:1;stroke:#d04a6a;stroke-width:0.0931364;stroke-opacity:1"
         inkscape:transform-center-x="0.0048440364"
         inkscape:transform-center-y="-0.010660778"
         d="m 50.212415,157.16363 a 1.2737444,3.0782156 11.25 0 0 -1.212599,0.96359 3.0782156,1.2737444 78.75 0 0 -1.212585,-0.96357 3.0782156,1.2737444 78.75 0 0 -0.750506,1.34563 3.0782156,1.2737444 56.25 0 0 -1.481068,-0.41942 3.0782156,1.2737444 56.25 0 0 -0.176761,1.53524 3.0782156,1.2737444 33.75 0 0 -1.539656,0.17617 3.0782156,1.2737444 33.75 0 0 0.423908,1.48561 3.0782156,1.2737444 11.25 0 0 -1.345603,0.75033 3.0782156,1.2737444 11.25 0 0 0.957093,1.2092 1.2737444,3.0782156 78.75 0 0 -0.961619,1.21128 1.2737444,3.0782156 78.75 0 0 1.353014,0.75155 1.2737444,3.0782156 56.25 0 0 -0.422745,1.48504 1.2737444,3.0782156 56.25 0 0 1.528594,0.1805 1.2737444,3.0782156 33.75 0 0 0.178262,1.53123 1.2737444,3.0782156 33.75 0 0 1.489512,-0.4244 1.2737444,3.0782156 11.25 0 0 0.750568,1.35071 1.2737444,3.0782156 11.25 0 0 1.206849,-0.95376 3.0782156,1.2737444 78.75 0 0 1.209416,0.95407 3.0782156,1.2737444 78.75 0 0 0.750743,-1.35107 3.0782156,1.2737444 56.25 0 0 1.490159,0.4246 3.0782156,1.2737444 56.25 0 0 0.178303,-1.53027 3.0782156,1.2737444 33.75 0 0 1.528785,-0.18087 3.0782156,1.2737444 33.75 0 0 -0.423176,-1.48505 3.0782156,1.2737444 11.25 0 0 1.353793,-0.75121 3.0782156,1.2737444 11.25 0 0 -0.957096,-1.21133 1.2737444,3.0782156 78.75 0 0 0.953106,-1.20875 1.2737444,3.0782156 78.75 0 0 -1.343524,-0.75051 1.2737444,3.0782156 56.25 0 0 0.421772,-1.4865 l 4.88e-4,-3.3e-4 a 1.2737444,3.0782156 56.25 0 0 -1.537025,-0.17628 1.2737444,3.0782156 33.75 0 0 -0.179243,-1.53478 l 8.2e-5,-4.1e-4 a 1.2737444,3.0782156 33.75 0 0 -1.479139,0.41888 1.2737444,3.0782156 11.25 0 0 -0.752102,-1.34512 z m -1.211518,6.03556 a 1.2737444,3.0782156 11.25 0 0 0.0104,0.003 1.2737444,3.0782156 11.25 0 0 0.0053,0.001 1.2737444,3.0782156 33.75 0 0 0.0069,0.005 1.2737444,3.0782156 33.75 0 0 0.01607,0.0103 1.2737444,3.0782156 56.25 0 0 8.85e-4,0.002 1.2737444,3.0782156 78.75 0 0 0.0025,0.0196 1.2737444,3.0782156 78.75 0 0 0.0046,0.0169 3.0782156,1.2737444 11.25 0 0 -1.56e-4,7.8e-4 3.0782156,1.2737444 11.25 0 0 -3.9e-4,0.002 3.0782156,1.2737444 33.75 0 0 -0.01185,0.015 3.0782156,1.2737444 33.75 0 0 -0.0062,0.0117 3.0782156,1.2737444 56.25 0 0 -0.0021,0.002 3.0782156,1.2737444 56.25 0 0 -0.0071,0.006 3.0782156,1.2737444 78.75 0 0 -0.01476,0.002 3.0782156,1.2737444 78.75 0 0 -0.0063,0.002 1.2737444,3.0782156 11.25 0 0 -0.0076,-0.002 1.2737444,3.0782156 11.25 0 0 -0.01354,-0.002 1.2737444,3.0782156 33.75 0 0 -0.0073,-0.006 1.2737444,3.0782156 56.25 0 0 -4.06e-4,-8e-5 1.2737444,3.0782156 56.25 0 0 -0.008,-0.013 1.2737444,3.0782156 56.25 0 0 -0.01031,-0.0139 1.2737444,3.0782156 78.75 0 0 -3.95e-4,-0.002 3.0782156,1.2737444 11.25 0 0 0.0047,-0.0194 3.0782156,1.2737444 11.25 0 0 0.002,-0.0169 3.0782156,1.2737444 11.25 0 0 8.2e-5,-4.1e-4 3.0782156,1.2737444 33.75 0 0 4.86e-4,-3.2e-4 3.0782156,1.2737444 33.75 0 0 8.2e-5,-4.1e-4 3.0782156,1.2737444 33.75 0 0 8e-5,-4.1e-4 3.0782156,1.2737444 33.75 0 0 4.86e-4,-3.2e-4 3.0782156,1.2737444 33.75 0 0 8e-5,-4e-4 3.0782156,1.2737444 33.75 0 0 4.9e-4,-3.4e-4 3.0782156,1.2737444 33.75 0 0 8e-5,-4e-4 3.0782156,1.2737444 33.75 0 0 4.85e-4,-3.3e-4 3.0782156,1.2737444 33.75 0 0 8e-5,-4e-4 3.0782156,1.2737444 33.75 0 0 8.2e-5,-4.1e-4 3.0782156,1.2737444 33.75 0 0 7.8e-5,-3.9e-4 3.0782156,1.2737444 56.25 0 0 4.06e-4,8e-5 3.0782156,1.2737444 33.75 0 0 8.2e-5,-4.1e-4 3.0782156,1.2737444 56.25 0 0 0.01468,-0.008 3.0782156,1.2737444 56.25 0 0 4.06e-4,8e-5 3.0782156,1.2737444 56.25 0 0 8e-5,-4.1e-4 3.0782156,1.2737444 56.25 0 0 4.87e-4,-3.2e-4 3.0782156,1.2737444 56.25 0 0 4.05e-4,8e-5 3.0782156,1.2737444 56.25 0 0 8e-5,-4e-4 3.0782156,1.2737444 56.25 0 0 4.06e-4,8e-5 3.0782156,1.2737444 56.25 0 0 4.87e-4,-3.3e-4 3.0782156,1.2737444 56.25 0 0 8.2e-5,-4.1e-4 3.0782156,1.2737444 56.25 0 0 4.05e-4,8e-5 3.0782156,1.2737444 56.25 0 0 8e-5,-4e-4 3.0782156,1.2737444 56.25 0 0 4.06e-4,8e-5 3.0782156,1.2737444 56.25 0 0 4.86e-4,-3.2e-4 3.0782156,1.2737444 56.25 0 0 8.2e-5,-4.1e-4 3.0782156,1.2737444 56.25 0 0 4.06e-4,8e-5 3.0782156,1.2737444 56.25 0 0 8e-5,-4.1e-4 3.0782156,1.2737444 56.25 0 0 4.05e-4,8e-5 3.0782156,1.2737444 56.25 0 0 4.83e-4,-3.1e-4 3.0782156,1.2737444 56.25 0 0 8.4e-5,-4.2e-4 3.0782156,1.2737444 56.25 0 0 4.07e-4,8e-5 3.0782156,1.2737444 56.25 0 0 8e-5,-4e-4 3.0782156,1.2737444 56.25 0 0 4.85e-4,-3.2e-4 3.0782156,1.2737444 56.25 0 0 4.06e-4,8e-5 3.0782156,1.2737444 56.25 0 0 8e-5,-4e-4 3.0782156,1.2737444 56.25 0 0 4.05e-4,8e-5 3.0782156,1.2737444 56.25 0 0 8.4e-5,-4.2e-4 3.0782156,1.2737444 56.25 0 0 4.82e-4,-3.1e-4 3.0782156,1.2737444 56.25 0 0 4.05e-4,8e-5 3.0782156,1.2737444 56.25 0 0 8.4e-5,-4.2e-4 3.0782156,1.2737444 56.25 0 0 4.07e-4,8e-5 3.0782156,1.2737444 56.25 0 0 8e-5,-4e-4 3.0782156,1.2737444 56.25 0 0 4.84e-4,-3.2e-4 3.0782156,1.2737444 56.25 0 0 4.06e-4,8e-5 3.0782156,1.2737444 56.25 0 0 8e-5,-4e-4 3.0782156,1.2737444 56.25 0 0 4.87e-4,-3.3e-4 3.0782156,1.2737444 78.75 0 0 0.0021,0 3.0782156,1.2737444 78.75 0 0 0.01233,-0.003 z" />
      <path
         id="path68032"
         style="fill:#feb4cd;fill-opacity:1;stroke:#d04a6a;stroke-width:0.0696439;stroke-opacity:1"
         inkscape:transform-center-x="0.0035232015"
         inkscape:transform-center-y="-0.0082787549"
         d="m 50.779498,158.96508 a 0.95245827,2.3017742 22.5 0 0 -1.029885,0.5298 0.95245827,2.3017742 0 0 0 -0.748733,-0.88358 0.95245827,2.3017742 0 0 0 -0.746723,0.8774 2.3017742,0.95245827 67.5 0 0 -1.024999,-0.52371 2.3017742,0.95245827 67.5 0 0 -0.353612,1.10016 2.3017742,0.95245827 45 0 0 -1.154871,-0.0954 2.3017742,0.95245827 45 0 0 0.09417,1.15139 2.3017742,0.95245827 22.5 0 0 -1.096315,0.35398 2.3017742,0.95245827 22.5 0 0 0.52553,1.02644 2.3017742,0.95245827 0 0 0 -0.881953,0.74807 2.3017742,0.95245827 0 0 0 0.882657,0.74856 0.95245827,2.3017742 67.5 0 0 -0.526681,1.02746 0.95245827,2.3017742 67.5 0 0 1.094723,0.35538 0.95245827,2.3017742 45 0 0 -0.09264,1.14899 0.95245827,2.3017742 45 0 0 1.154306,-0.0939 0.95245827,2.3017742 22.5 0 0 0.353418,1.10009 0.95245827,2.3017742 22.5 0 0 1.024236,-0.52343 0.95245827,2.3017742 0 0 0 0.747794,0.87615 0.95245827,2.3017742 0 0 0 0.747688,-0.88135 2.3017742,0.95245827 67.5 0 0 1.030938,0.52878 2.3017742,0.95245827 67.5 0 0 0.354003,-1.09631 2.3017742,0.95245827 45 0 0 1.147589,0.0904 2.3017742,0.95245827 45 0 0 -0.09372,-1.15085 2.3017742,0.95245827 22.5 0 0 1.102457,-0.35346 2.3017742,0.95245827 22.5 0 0 -0.525229,-1.02798 2.3017742,0.95245827 0 0 0 0.875342,-0.74746 2.3017742,0.95245827 0 0 0 -0.875844,-0.74642 0.95245827,2.3017742 67.5 0 0 0.52618,-1.02865 l 4.08e-4,-1.7e-4 a 0.95245827,2.3017742 67.5 0 0 -1.101511,-0.35355 0.95245827,2.3017742 45 0 0 0.09244,-1.15176 l 1.18e-4,-2.8e-4 a 0.95245827,2.3017742 45 0 0 -1.145897,0.0914 0.95245827,2.3017742 22.5 0 0 -0.355363,-1.09622 z m -1.769044,4.24968 a 0.95245827,2.3017742 22.5 0 0 0.0073,0.003 0.95245827,2.3017742 22.5 0 0 0.0036,0.001 0.95245827,2.3017742 45 0 0 0.0039,0.006 0.95245827,2.3017742 45 0 0 0.01047,0.009 0.95245827,2.3017742 67.5 0 0 5.1e-4,0.001 2.3017742,0.95245827 0 0 0 -9.84e-4,0.0147 2.3017742,0.95245827 0 0 0 9.55e-4,0.0131 2.3017742,0.95245827 22.5 0 0 -2.26e-4,5.5e-4 2.3017742,0.95245827 22.5 0 0 -3.51e-4,8.4e-4 2.3017742,0.95245827 45 0 0 -0.01084,0.009 2.3017742,0.95245827 45 0 0 -0.006,0.007 2.3017742,0.95245827 67.5 0 0 -0.0016,3.3e-4 2.3017742,0.95245827 67.5 0 0 -0.0059,0.003 0.95245827,2.3017742 0 0 0 -0.01127,-2e-4 0.95245827,2.3017742 0 0 0 -0.0051,10e-4 0.95245827,2.3017742 22.5 0 0 -0.0054,-0.002 0.95245827,2.3017742 22.5 0 0 -0.0097,-0.003 0.95245827,2.3017742 45 0 0 -0.0041,-0.006 0.95245827,2.3017742 67.5 0 0 -2.87e-4,-1.2e-4 0.95245827,2.3017742 67.5 0 0 -0.0041,-0.01 0.95245827,2.3017742 67.5 0 0 -0.0058,-0.0113 2.3017742,0.95245827 0 0 0 -2.07e-4,-10e-4 2.3017742,0.95245827 22.5 0 0 0.0063,-0.0135 2.3017742,0.95245827 22.5 0 0 0.004,-0.012 2.3017742,0.95245827 22.5 0 0 1.25e-4,-3e-4 2.3017742,0.95245827 45 0 0 4.02e-4,-1.7e-4 2.3017742,0.95245827 45 0 0 1.15e-4,-2.7e-4 2.3017742,0.95245827 45 0 0 1.19e-4,-2.9e-4 2.3017742,0.95245827 45 0 0 4.01e-4,-1.6e-4 2.3017742,0.95245827 45 0 0 1.27e-4,-3.1e-4 2.3017742,0.95245827 45 0 0 4.03e-4,-1.6e-4 2.3017742,0.95245827 45 0 0 1.14e-4,-2.8e-4 2.3017742,0.95245827 45 0 0 4.01e-4,-1.6e-4 2.3017742,0.95245827 45 0 0 1.22e-4,-2.9e-4 2.3017742,0.95245827 45 0 0 1.24e-4,-3e-4 2.3017742,0.95245827 45 0 0 1.09e-4,-2.7e-4 2.3017742,0.95245827 67.5 0 0 2.86e-4,1.2e-4 2.3017742,0.95245827 45 0 0 1.18e-4,-2.8e-4 2.3017742,0.95245827 67.5 0 0 0.01194,-0.004 2.3017742,0.95245827 67.5 0 0 2.86e-4,1.1e-4 2.3017742,0.95245827 67.5 0 0 1.15e-4,-2.7e-4 2.3017742,0.95245827 67.5 0 0 4.05e-4,-1.7e-4 2.3017742,0.95245827 67.5 0 0 2.84e-4,1.1e-4 2.3017742,0.95245827 67.5 0 0 1.18e-4,-2.8e-4 2.3017742,0.95245827 67.5 0 0 2.86e-4,1.2e-4 2.3017742,0.95245827 67.5 0 0 4.04e-4,-1.7e-4 2.3017742,0.95245827 67.5 0 0 1.2e-4,-2.9e-4 2.3017742,0.95245827 67.5 0 0 2.86e-4,1.2e-4 2.3017742,0.95245827 67.5 0 0 1.22e-4,-2.9e-4 2.3017742,0.95245827 67.5 0 0 2.84e-4,1.2e-4 2.3017742,0.95245827 67.5 0 0 4e-4,-1.6e-4 2.3017742,0.95245827 67.5 0 0 1.16e-4,-2.8e-4 2.3017742,0.95245827 67.5 0 0 2.87e-4,1.2e-4 2.3017742,0.95245827 67.5 0 0 1.22e-4,-2.9e-4 2.3017742,0.95245827 67.5 0 0 2.85e-4,1.1e-4 2.3017742,0.95245827 67.5 0 0 4e-4,-1.5e-4 2.3017742,0.95245827 67.5 0 0 1.23e-4,-3e-4 2.3017742,0.95245827 67.5 0 0 2.86e-4,1.1e-4 2.3017742,0.95245827 67.5 0 0 1.15e-4,-2.7e-4 2.3017742,0.95245827 67.5 0 0 4.08e-4,-1.8e-4 2.3017742,0.95245827 67.5 0 0 2.87e-4,1.2e-4 2.3017742,0.95245827 67.5 0 0 1.14e-4,-2.8e-4 2.3017742,0.95245827 67.5 0 0 2.86e-4,1.2e-4 2.3017742,0.95245827 67.5 0 0 1.21e-4,-2.9e-4 2.3017742,0.95245827 67.5 0 0 4.03e-4,-1.7e-4 2.3017742,0.95245827 67.5 0 0 2.85e-4,1.2e-4 2.3017742,0.95245827 67.5 0 0 1.18e-4,-2.8e-4 2.3017742,0.95245827 67.5 0 0 2.85e-4,1.2e-4 2.3017742,0.95245827 67.5 0 0 1.19e-4,-2.8e-4 2.3017742,0.95245827 67.5 0 0 4.08e-4,-1.9e-4 2.3017742,0.95245827 67.5 0 0 2.86e-4,1.2e-4 2.3017742,0.95245827 67.5 0 0 1.14e-4,-2.7e-4 2.3017742,0.95245827 67.5 0 0 4.05e-4,-1.8e-4 0.95245827,2.3017742 0 0 0 0.0017,3.7e-4 0.95245827,2.3017742 0 0 0 0.0094,-1.6e-4 z" />
      <path
         id="path42806"
         style="fill:#feb4cd;fill-opacity:1;stroke:#d04a6a;stroke-width:0.0484924;stroke-opacity:1"
         inkscape:transform-center-x="0.0024541269"
         inkscape:transform-center-y="-0.0057226843"
         d="m 50.24026,160.2693 a 0.66318843,1.6027054 22.5 0 0 -0.717093,0.36888 0.66318843,1.6027054 0 0 0 -0.521341,-0.61522 0.66318843,1.6027054 0 0 0 -0.519939,0.61093 1.6027054,0.66318843 67.5 0 0 -0.713729,-0.36459 1.6027054,0.66318843 67.5 0 0 -0.246207,0.76604 1.6027054,0.66318843 45 0 0 -0.804124,-0.0665 1.6027054,0.66318843 45 0 0 0.06557,0.80169 1.6027054,0.66318843 22.5 0 0 -0.763357,0.24649 1.6027054,0.66318843 22.5 0 0 0.365921,0.7147 1.6027054,0.66318843 0 0 0 -0.614095,0.52087 1.6027054,0.66318843 0 0 0 0.61459,0.52121 0.66318843,1.6027054 67.5 0 0 -0.366725,0.71542 0.66318843,1.6027054 67.5 0 0 0.762248,0.24746 0.66318843,1.6027054 45 0 0 -0.0645,0.80004 0.66318843,1.6027054 45 0 0 0.803734,-0.0654 0.66318843,1.6027054 22.5 0 0 0.246081,0.766 0.66318843,1.6027054 22.5 0 0 0.713172,-0.36448 0.66318843,1.6027054 0 0 0 0.52068,0.61006 0.66318843,1.6027054 0 0 0 0.520609,-0.61367 1.6027054,0.66318843 67.5 0 0 0.717851,0.36813 1.6027054,0.66318843 67.5 0 0 0.246486,-0.76334 1.6027054,0.66318843 45 0 0 0.79906,0.0629 1.6027054,0.66318843 45 0 0 -0.06525,-0.80134 1.6027054,0.66318843 22.5 0 0 0.767628,-0.2461 1.6027054,0.66318843 22.5 0 0 -0.365708,-0.71578 1.6027054,0.66318843 0 0 0 0.609493,-0.52045 1.6027054,0.66318843 0 0 0 -0.609845,-0.51972 0.66318843,1.6027054 67.5 0 0 0.366374,-0.71625 l 2.85e-4,-1.3e-4 a 0.66318843,1.6027054 67.5 0 0 -0.76698,-0.24616 0.66318843,1.6027054 45 0 0 0.06437,-0.80195 l 8.6e-5,-2e-4 a 0.66318843,1.6027054 45 0 0 -0.79788,0.0637 0.66318843,1.6027054 22.5 0 0 -0.247433,-0.7633 z m -1.231728,2.95902 a 0.66318843,1.6027054 22.5 0 0 0.0049,0.003 0.66318843,1.6027054 22.5 0 0 0.0025,10e-4 0.66318843,1.6027054 45 0 0 0.0026,0.005 0.66318843,1.6027054 45 0 0 0.0074,0.007 0.66318843,1.6027054 67.5 0 0 2.94e-4,0.001 1.6027054,0.66318843 0 0 0 -7.54e-4,0.0105 1.6027054,0.66318843 0 0 0 3.05e-4,0.0103 1.6027054,0.66318843 22.5 0 0 -1.6e-4,3.9e-4 1.6027054,0.66318843 22.5 0 0 -3.1e-4,7.4e-4 1.6027054,0.66318843 45 0 0 -0.0076,0.007 1.6027054,0.66318843 45 0 0 -0.0044,0.005 1.6027054,0.66318843 67.5 0 0 -0.0011,4.1e-4 1.6027054,0.66318843 67.5 0 0 -0.0038,0.001 0.66318843,1.6027054 0 0 0 -0.0079,4.6e-4 0.66318843,1.6027054 0 0 0 -0.0034,3.4e-4 0.66318843,1.6027054 22.5 0 0 -0.0037,-0.002 0.66318843,1.6027054 22.5 0 0 -0.0067,-0.002 0.66318843,1.6027054 45 0 0 -0.0028,-0.005 0.66318843,1.6027054 67.5 0 0 -2e-4,-8e-5 0.66318843,1.6027054 67.5 0 0 -0.0027,-0.008 0.66318843,1.6027054 67.5 0 0 -0.0038,-0.008 1.6027054,0.66318843 0 0 0 -7.3e-5,-9.1e-4 1.6027054,0.66318843 22.5 0 0 0.0043,-0.009 1.6027054,0.66318843 22.5 0 0 0.0028,-0.009 1.6027054,0.66318843 22.5 0 0 8.5e-5,-2.1e-4 1.6027054,0.66318843 45 0 0 2.83e-4,-1.2e-4 1.6027054,0.66318843 45 0 0 8.1e-5,-1.9e-4 1.6027054,0.66318843 45 0 0 8.3e-5,-2e-4 1.6027054,0.66318843 45 0 0 2.8e-4,-1.2e-4 1.6027054,0.66318843 45 0 0 8.3e-5,-2e-4 1.6027054,0.66318843 45 0 0 2.82e-4,-1.1e-4 1.6027054,0.66318843 45 0 0 8.1e-5,-2e-4 1.6027054,0.66318843 45 0 0 2.83e-4,-1.2e-4 1.6027054,0.66318843 45 0 0 8.2e-5,-2e-4 1.6027054,0.66318843 45 0 0 8.5e-5,-2e-4 1.6027054,0.66318843 45 0 0 7.9e-5,-1.9e-4 1.6027054,0.66318843 67.5 0 0 1.99e-4,8e-5 1.6027054,0.66318843 45 0 0 8.1e-5,-2e-4 1.6027054,0.66318843 67.5 0 0 0.0084,-0.003 1.6027054,0.66318843 67.5 0 0 1.99e-4,8e-5 1.6027054,0.66318843 67.5 0 0 7.7e-5,-1.9e-4 1.6027054,0.66318843 67.5 0 0 2.83e-4,-1.2e-4 1.6027054,0.66318843 67.5 0 0 1.99e-4,8e-5 1.6027054,0.66318843 67.5 0 0 8.1e-5,-1.9e-4 1.6027054,0.66318843 67.5 0 0 1.98e-4,9e-5 1.6027054,0.66318843 67.5 0 0 2.79e-4,-1.2e-4 1.6027054,0.66318843 67.5 0 0 8.7e-5,-2.1e-4 1.6027054,0.66318843 67.5 0 0 1.99e-4,8e-5 1.6027054,0.66318843 67.5 0 0 8.2e-5,-2e-4 1.6027054,0.66318843 67.5 0 0 1.97e-4,9e-5 1.6027054,0.66318843 67.5 0 0 2.84e-4,-1.2e-4 1.6027054,0.66318843 67.5 0 0 7.9e-5,-1.9e-4 1.6027054,0.66318843 67.5 0 0 2.01e-4,8e-5 1.6027054,0.66318843 67.5 0 0 8.5e-5,-2.1e-4 1.6027054,0.66318843 67.5 0 0 1.98e-4,8e-5 1.6027054,0.66318843 67.5 0 0 2.79e-4,-1.1e-4 1.6027054,0.66318843 67.5 0 0 8.5e-5,-2e-4 1.6027054,0.66318843 67.5 0 0 1.97e-4,9e-5 1.6027054,0.66318843 67.5 0 0 8.1e-5,-2e-4 1.6027054,0.66318843 67.5 0 0 2.84e-4,-1.2e-4 1.6027054,0.66318843 67.5 0 0 2e-4,8e-5 1.6027054,0.66318843 67.5 0 0 8.1e-5,-1.9e-4 1.6027054,0.66318843 67.5 0 0 1.98e-4,8e-5 1.6027054,0.66318843 67.5 0 0 8.3e-5,-2e-4 1.6027054,0.66318843 67.5 0 0 2.81e-4,-1.2e-4 1.6027054,0.66318843 67.5 0 0 1.97e-4,9e-5 1.6027054,0.66318843 67.5 0 0 8.5e-5,-2.1e-4 1.6027054,0.66318843 67.5 0 0 2e-4,8e-5 1.6027054,0.66318843 67.5 0 0 7.9e-5,-1.8e-4 1.6027054,0.66318843 67.5 0 0 2.84e-4,-1.3e-4 1.6027054,0.66318843 67.5 0 0 1.97e-4,9e-5 1.6027054,0.66318843 67.5 0 0 8.5e-5,-2.1e-4 1.6027054,0.66318843 67.5 0 0 2.78e-4,-1.1e-4 0.66318843,1.6027054 0 0 0 0.0011,2.1e-4 0.66318843,1.6027054 0 0 0 0.0068,-7e-4 z" />
      <path
         id="path55962"
         style="fill:#fc86ab;fill-opacity:1;stroke:#d04a6a;stroke-width:0.0279035;stroke-opacity:1"
         inkscape:transform-center-x="0.0014465043"
         inkscape:transform-center-y="-0.0034150129"
         d="m 49.36634,161.43461 a 0.38161299,0.92223133 11.25 0 0 -0.363292,0.28868 0.92223133,0.38161299 78.75 0 0 -0.36329,-0.28868 0.92223133,0.38161299 78.75 0 0 -0.224854,0.40316 0.92223133,0.38161299 56.25 0 0 -0.443723,-0.12569 0.92223133,0.38161299 56.25 0 0 -0.05296,0.45998 0.92223133,0.38161299 33.75 0 0 -0.461267,0.0527 0.92223133,0.38161299 33.75 0 0 0.127004,0.44508 0.92223133,0.38161299 11.25 0 0 -0.403139,0.22479 0.92223133,0.38161299 11.25 0 0 0.286744,0.36227 0.38161299,0.92223133 78.75 0 0 -0.288103,0.36292 0.38161299,0.92223133 78.75 0 0 0.405377,0.22509 0.38161299,0.92223133 56.25 0 0 -0.126663,0.44491 0.38161299,0.92223133 56.25 0 0 0.457964,0.0541 0.38161299,0.92223133 33.75 0 0 0.05342,0.45873 0.38161299,0.92223133 33.75 0 0 0.446255,-0.12714 0.38161299,0.92223133 11.25 0 0 0.224871,0.40467 0.38161299,0.92223133 11.25 0 0 0.361569,-0.28575 0.92223133,0.38161299 78.75 0 0 0.362339,0.28586 0.92223133,0.38161299 78.75 0 0 0.224929,-0.40479 0.92223133,0.38161299 56.25 0 0 0.446463,0.12714 0.92223133,0.38161299 56.25 0 0 0.05342,-0.45846 0.92223133,0.38161299 33.75 0 0 0.458032,-0.0542 0.92223133,0.38161299 33.75 0 0 -0.126784,-0.44491 0.92223133,0.38161299 11.25 0 0 0.405599,-0.22508 0.92223133,0.38161299 11.25 0 0 -0.286747,-0.36289 0.38161299,0.92223133 78.75 0 0 0.285551,-0.36215 0.38161299,0.92223133 78.75 0 0 -0.402525,-0.22483 0.38161299,0.92223133 56.25 0 0 0.126361,-0.44535 l 1.5e-4,-1.1e-4 a 0.38161299,0.92223133 56.25 0 0 -0.460484,-0.0528 0.38161299,0.92223133 33.75 0 0 -0.0537,-0.45982 l 2.6e-5,-1.3e-4 a 0.38161299,0.92223133 33.75 0 0 -0.44315,0.1255 0.38161299,0.92223133 11.25 0 0 -0.225331,-0.403 z m -0.362947,1.80825 a 0.38161299,0.92223133 11.25 0 0 0.0031,8.6e-4 0.38161299,0.92223133 11.25 0 0 0.0016,3.1e-4 0.38161299,0.92223133 33.75 0 0 0.0019,0.002 0.38161299,0.92223133 33.75 0 0 0.0047,0.004 0.38161299,0.92223133 56.25 0 0 2.83e-4,5.4e-4 0.38161299,0.92223133 78.75 0 0 8.88e-4,0.005 0.38161299,0.92223133 78.75 0 0 0.0015,0.004 0.92223133,0.38161299 11.25 0 0 -4.7e-5,2.4e-4 0.92223133,0.38161299 11.25 0 0 -9.4e-5,4.7e-4 0.92223133,0.38161299 33.75 0 0 -0.0035,0.004 0.92223133,0.38161299 33.75 0 0 -0.0019,0.004 0.92223133,0.38161299 56.25 0 0 -5.94e-4,3.5e-4 0.92223133,0.38161299 56.25 0 0 -0.0023,0.003 0.92223133,0.38161299 78.75 0 0 -0.0044,0.001 0.92223133,0.38161299 78.75 0 0 -0.0018,3.9e-4 0.38161299,0.92223133 11.25 0 0 -0.0022,-5.7e-4 0.38161299,0.92223133 11.25 0 0 -0.0041,-5.6e-4 0.38161299,0.92223133 33.75 0 0 -0.002,-0.002 0.38161299,0.92223133 56.25 0 0 -1.21e-4,-2e-5 0.38161299,0.92223133 56.25 0 0 -0.0025,-0.004 0.38161299,0.92223133 56.25 0 0 -0.0031,-0.004 0.38161299,0.92223133 78.75 0 0 -1.41e-4,-5.3e-4 0.92223133,0.38161299 11.25 0 0 0.0012,-0.005 0.92223133,0.38161299 11.25 0 0 6.02e-4,-0.005 0.92223133,0.38161299 11.25 0 0 2.5e-5,-1.2e-4 0.92223133,0.38161299 33.75 0 0 1.43e-4,-9e-5 0.92223133,0.38161299 33.75 0 0 2.4e-5,-1.2e-4 0.92223133,0.38161299 33.75 0 0 2.3e-5,-1.1e-4 0.92223133,0.38161299 33.75 0 0 1.46e-4,-1.1e-4 0.92223133,0.38161299 33.75 0 0 2.4e-5,-1.1e-4 0.92223133,0.38161299 33.75 0 0 1.49e-4,-1.1e-4 0.92223133,0.38161299 33.75 0 0 2.5e-5,-1.3e-4 0.92223133,0.38161299 33.75 0 0 1.44e-4,-9e-5 0.92223133,0.38161299 33.75 0 0 2.3e-5,-1.2e-4 0.92223133,0.38161299 33.75 0 0 2.4e-5,-1.1e-4 0.92223133,0.38161299 33.75 0 0 2.5e-5,-1.3e-4 0.92223133,0.38161299 56.25 0 0 1.22e-4,2e-5 0.92223133,0.38161299 33.75 0 0 2.3e-5,-1.2e-4 0.92223133,0.38161299 56.25 0 0 0.0043,-0.002 0.92223133,0.38161299 56.25 0 0 1.22e-4,3e-5 0.92223133,0.38161299 56.25 0 0 2.7e-5,-1.4e-4 0.92223133,0.38161299 56.25 0 0 1.41e-4,-7e-5 0.92223133,0.38161299 56.25 0 0 1.21e-4,2e-5 0.92223133,0.38161299 56.25 0 0 2.8e-5,-1.4e-4 0.92223133,0.38161299 56.25 0 0 1.21e-4,3e-5 0.92223133,0.38161299 56.25 0 0 1.46e-4,-1.1e-4 0.92223133,0.38161299 56.25 0 0 2.4e-5,-1.1e-4 0.92223133,0.38161299 56.25 0 0 1.22e-4,2e-5 0.92223133,0.38161299 56.25 0 0 2.4e-5,-1.2e-4 0.92223133,0.38161299 56.25 0 0 1.21e-4,3e-5 0.92223133,0.38161299 56.25 0 0 1.46e-4,-1.1e-4 0.92223133,0.38161299 56.25 0 0 2.6e-5,-1.2e-4 0.92223133,0.38161299 56.25 0 0 1.21e-4,2e-5 0.92223133,0.38161299 56.25 0 0 2.4e-5,-1.2e-4 0.92223133,0.38161299 56.25 0 0 1.21e-4,3e-5 0.92223133,0.38161299 56.25 0 0 1.46e-4,-1.1e-4 0.92223133,0.38161299 56.25 0 0 2.6e-5,-1.2e-4 0.92223133,0.38161299 56.25 0 0 1.23e-4,2e-5 0.92223133,0.38161299 56.25 0 0 2.2e-5,-1.1e-4 0.92223133,0.38161299 56.25 0 0 1.46e-4,-1e-4 0.92223133,0.38161299 56.25 0 0 1.21e-4,2e-5 0.92223133,0.38161299 56.25 0 0 2.2e-5,-1e-4 0.92223133,0.38161299 56.25 0 0 1.22e-4,2e-5 0.92223133,0.38161299 56.25 0 0 2.6e-5,-1.3e-4 0.92223133,0.38161299 56.25 0 0 1.43e-4,-9e-5 0.92223133,0.38161299 56.25 0 0 1.22e-4,2e-5 0.92223133,0.38161299 56.25 0 0 2.4e-5,-1.1e-4 0.92223133,0.38161299 56.25 0 0 1.21e-4,2e-5 0.92223133,0.38161299 56.25 0 0 2.4e-5,-1.2e-4 0.92223133,0.38161299 56.25 0 0 1.48e-4,-1.1e-4 0.92223133,0.38161299 56.25 0 0 1.22e-4,2e-5 0.92223133,0.38161299 56.25 0 0 2.4e-5,-1.1e-4 0.92223133,0.38161299 56.25 0 0 1.44e-4,-1e-4 0.92223133,0.38161299 78.75 0 0 6.68e-4,0 0.92223133,0.38161299 78.75 0 0 0.0038,-10e-4 z" />
      <circle
         style="fill:#7f2b48;fill-opacity:1;stroke:none;stroke-width:0.294837;stroke-opacity:1"
         id="path51570"
         cx="79.903641"
         cy="150.54236"
         r="1.4560848"
         transform="rotate(11.25)" />
      <circle
         style="fill:#feb4cd;fill-opacity:1;stroke:none;stroke-width:0.184679;stroke-opacity:1"
         id="path75388"
         cx="79.354385"
         cy="149.96565"
         r="0.058465209"
         transform="rotate(11.25)" />
      <circle
         style="fill:#feb4cd;fill-opacity:1;stroke:none;stroke-width:0.184679;stroke-opacity:1"
         id="circle76120"
         cx="79.304771"
         cy="150.2137"
         r="0.058465209"
         transform="rotate(11.25)" />
      <circle
         style="fill:#feb4cd;fill-opacity:1;stroke:none;stroke-width:0.184679;stroke-opacity:1"
         id="circle76122"
         cx="79.660309"
         cy="150.3956"
         r="0.058465209"
         transform="rotate(11.25)" />
      <circle
         style="fill:#feb4cd;fill-opacity:1;stroke:none;stroke-width:0.184679;stroke-opacity:1"
         id="circle76124"
         cx="79.776062"
         cy="150.17236"
         r="0.058465209"
         transform="rotate(11.25)" />
      <circle
         style="fill:#feb4cd;fill-opacity:1;stroke:none;stroke-width:0.184679;stroke-opacity:1"
         id="circle76126"
         cx="79.420532"
         cy="150.41214"
         r="0.058465209"
         transform="rotate(11.25)" />
      <circle
         style="fill:#feb4cd;fill-opacity:1;stroke:none;stroke-width:0.184679;stroke-opacity:1"
         id="circle76128"
         cx="79.519745"
         cy="150.17235"
         r="0.058465209"
         transform="rotate(11.25)" />
      <circle
         style="fill:#feb4cd;fill-opacity:1;stroke:none;stroke-width:0.184679;stroke-opacity:1"
         id="circle76130"
         cx="79.627235"
         cy="149.94084"
         r="0.058465209"
         transform="rotate(11.25)" />
      <circle
         style="fill:#feb4cd;fill-opacity:1;stroke:none;stroke-width:0.184679;stroke-opacity:1"
         id="circle76132"
         cx="79.354385"
         cy="149.96565"
         r="0.058465209"
         transform="rotate(11.25)" />
      <circle
         style="fill:#feb4cd;fill-opacity:1;stroke:none;stroke-width:0.184679;stroke-opacity:1"
         id="circle76134"
         cx="79.304771"
         cy="150.2137"
         r="0.058465209"
         transform="rotate(11.25)" />
      <circle
         style="fill:#feb4cd;fill-opacity:1;stroke:none;stroke-width:0.184679;stroke-opacity:1"
         id="circle76136"
         cx="79.660309"
         cy="150.3956"
         r="0.058465209"
         transform="rotate(11.25)" />
      <circle
         style="fill:#feb4cd;fill-opacity:1;stroke:none;stroke-width:0.184679;stroke-opacity:1"
         id="circle76138"
         cx="79.776062"
         cy="150.17236"
         r="0.058465209"
         transform="rotate(11.25)" />
      <circle
         style="fill:#feb4cd;fill-opacity:1;stroke:none;stroke-width:0.184679;stroke-opacity:1"
         id="circle76140"
         cx="79.420532"
         cy="150.41214"
         r="0.058465209"
         transform="rotate(11.25)" />
      <circle
         style="fill:#feb4cd;fill-opacity:1;stroke:none;stroke-width:0.184679;stroke-opacity:1"
         id="circle76142"
         cx="79.519745"
         cy="150.17235"
         r="0.058465209"
         transform="rotate(11.25)" />
      <circle
         style="fill:#feb4cd;fill-opacity:1;stroke:none;stroke-width:0.184679;stroke-opacity:1"
         id="circle76144"
         cx="79.627235"
         cy="149.94084"
         r="0.058465209"
         transform="rotate(11.25)" />
      <path
         id="path99352"
         style="fill:#85aa74;fill-opacity:1;stroke:none;stroke-width:0.184679;stroke-opacity:1"
         d="m 54.360424,171.10467 a 4.8175335,4.8175335 0 0 0 -4.222311,1.82873 4.8175335,4.8175335 0 0 0 -0.755777,4.53644 4.8175335,4.8175335 0 0 0 4.219722,-1.82877 4.8175335,4.8175335 0 0 0 0.758366,-4.5364 z" />
      <path
         id="path100225"
         style="fill:#85aa74;fill-opacity:1;stroke:none;stroke-width:0.184679;stroke-opacity:1"
         d="m 44.23261,173.63037 a 4.8175335,4.8175335 0 0 1 4.222311,1.82873 4.8175335,4.8175335 0 0 1 0.755777,4.53644 4.8175335,4.8175335 0 0 1 -4.219722,-1.82877 4.8175335,4.8175335 0 0 1 -0.758366,-4.5364 z" />
      <path
         id="rect100279"
         style="opacity:0.056;fill:#000000;fill-opacity:1;stroke:none;stroke-width:0.184679;stroke-opacity:1"
         d="m 50.305973,155.63546 a 1.5914764,3.846068 11.25 0 0 -1.305347,1.20819 v 25.9731 h 0.473873 v -4.38992 a 4.8175335,4.8175335 0 0 0 0,-0.0284 4.8175335,4.8175335 0 0 0 0,-0.0269 v -0.89659 a 4.8175335,4.8175335 0 0 0 4.127396,-1.83399 4.8175335,4.8175335 0 0 0 0.75861,-4.53616 4.8175335,4.8175335 0 0 0 -4.222481,1.82883 4.8175335,4.8175335 0 0 0 -0.663525,1.15032 v -3.7419 a 3.846068,1.5914764 78.75 0 0 1.031978,0.5054 3.846068,1.5914764 78.75 0 0 0.937927,-1.68775 3.846068,1.5914764 56.25 0 0 1.861902,0.5302 3.846068,1.5914764 56.25 0 0 0.222726,-1.91203 3.846068,1.5914764 33.75 0 0 1.910477,-0.22583 3.846068,1.5914764 33.75 0 0 -0.529166,-1.8557 3.846068,1.5914764 11.25 0 0 1.691886,-0.93844 3.846068,1.5914764 11.25 0 0 -1.196309,-1.5136 1.5914764,3.846068 78.75 0 0 1.191141,-1.50999 1.5914764,3.846068 78.75 0 0 -1.67845,-0.93793 1.5914764,3.846068 56.25 0 0 0.526583,-1.85725 l 5.16e-4,-5.1e-4 a 1.5914764,3.846068 56.25 0 0 -1.920296,-0.22014 1.5914764,3.846068 33.75 0 0 -0.223759,-1.91772 v -5.1e-4 a 1.5914764,3.846068 33.75 0 0 -1.847949,0.52348 1.5914764,3.846068 11.25 0 0 -0.939994,-1.68052 1.5914764,3.846068 11.25 0 0 -0.207739,-0.008 z" />
      <g
         id="g97048"
         transform="translate(-30.54318,9.1501086)">
        <path
           id="rect80808"
           style="fill:#f29b6c;stroke:none;stroke-width:0.184679"
           d="m 73.686455,174.02968 h 11.840104 l -0.536151,11.30584 c -0.06135,1.27505 -0.10613,1.14603 -1.279921,1.14636 l -8.161746,0.002 c -1.343043,0.007 -1.252384,0.0386 -1.31203,-1.18324 z"
           sodipodi:nodetypes="ccccccc" />
        <path
           id="rect89675"
           style="fill:#f29b6c;stroke-width:0.18436"
           d="m 73.426455,171.13936 h 12.230922 c 0.665766,-0.003 0.61389,0.009 0.61389,0.63142 v 1.5961 c 0.0018,0.6628 0.03167,0.6628 -0.61389,0.6628 H 73.303678 c -0.594546,-0.005 -0.510111,-0.005 -0.526182,-0.53417 v -1.75981 c 0.0041,-0.6649 0.03155,-0.59634 0.648959,-0.59634 z"
           sodipodi:nodetypes="ccccccccc" />
        <path
           id="rect93330"
           style="opacity:0.36;fill:#000000;fill-opacity:1;stroke:none;stroke-width:0.187933;stroke-opacity:1"
           d="m 73.686457,174.02969 0.02584,0.52399 h 11.789461 l 0.0248,-0.52399 z" />
      </g>
      <path
         id="path97050"
         style="opacity:0.056;fill:#000000;fill-opacity:1;stroke:none;stroke-width:0.184679;stroke-opacity:1"
         d="m 48.998734,180.28953 0.08785,15.34325 4.080887,-0.001 c 1.173789,-3.3e-4 1.218159,0.12886 1.279509,-1.14619 l 0.536401,-11.30576 h 0.130742 c 0.645558,0 0.615716,-2.1e-4 0.613916,-0.66301 v -1.59577 c 0,-0.62242 0.05185,-0.63449 -0.613916,-0.63149 z" />
      <text
         xml:space="preserve"
         style="font-style:normal;font-variant:normal;font-weight:bold;font-stretch:normal;font-size:1.1527px;font-family:'Berlin Sans FB';-inkscape-font-specification:'Berlin Sans FB Bold';text-align:start;writing-mode:lr-tb;direction:ltr;text-anchor:start;fill:none;fill-opacity:1;stroke:#db7d4a;stroke-width:0.15086;stroke-opacity:1"
         x="45.348995"
         y="189.26202"
         id="text101971"
         transform="scale(0.97910147,1.0213446)"><tspan
           sodipodi:role="line"
           id="tspan101969"
           style="font-style:normal;font-variant:normal;font-weight:bold;font-stretch:normal;font-size:1.1527px;font-family:'Berlin Sans FB';-inkscape-font-specification:'Berlin Sans FB Bold';text-align:start;writing-mode:lr-tb;direction:ltr;text-anchor:start;stroke:#db7d4a;stroke-width:0.15086;stroke-opacity:1"
           x="45.348995"
           y="189.26202">LAZY</tspan><tspan
           sodipodi:role="line"
           style="font-style:normal;font-variant:normal;font-weight:bold;font-stretch:normal;font-size:1.1527px;font-family:'Berlin Sans FB';-inkscape-font-specification:'Berlin Sans FB Bold';text-align:start;writing-mode:lr-tb;direction:ltr;text-anchor:start;stroke:#db7d4a;stroke-width:0.15086;stroke-opacity:1"
           x="45.348995"
           y="190.7029"
           id="tspan101973">DAISY</tspan></text>
    </g>
  </g>
</svg>
